<?xml version="1.0" standalone="no"?><!DOCTYPE svg PUBLIC "-//W3C//DTD SVG 1.1//EN" "http://www.w3.org/Graphics/SVG/1.1/DTD/svg11.dtd">
<svg t="1670145140767" class="icon" viewBox="0 0 1024 1024" version="1.1"
  xmlns="http://www.w3.org/2000/svg" p-id="2810"
  xmlns:xlink="http://www.w3.org/1999/xlink" width="48" height="48">
  <path d="M512 384c-70.826667 0-128 57.173333-128 128s57.173333 128 128 128 128-57.173333 128-128-57.173333-128-128-128m0 341.333333c-117.76 0-213.333333-95.573333-213.333333-213.333333s95.573333-213.333333 213.333333-213.333333 213.333333 95.573333 213.333333 213.333333-95.573333 213.333333-213.333333 213.333333m0-533.333333C298.666667 192 116.48 324.693333 42.666667 512c73.813333 187.306667 256 320 469.333333 320s395.52-132.693333 469.333333-320c-73.813333-187.306667-256-320-469.333333-320z" fill="#2580fb" p-id="2811"></path>
</svg>
