<?xml version="1.0" encoding="utf-8"?>
<!-- Generator: Adobe Illustrator 25.4.1, SVG Export Plug-In . SVG Version: 6.00 Build 0)  -->
<svg version="1.1" id="图层_1" xmlns="http://www.w3.org/2000/svg" xmlns:xlink="http://www.w3.org/1999/xlink" x="0px" y="0px"
	 viewBox="0 0 72 72" style="enable-background:new 0 0 72 72;" xml:space="preserve">
<style type="text/css">
	.st0{fill:#A5A8AA;}
	.st1{fill:#FFFFFF;}
</style>
<path class="st0" d="M0.8,35.6c0,19.5,15.8,35.2,35.2,35.2S71.2,55,71.2,35.6S55.5,0.4,36,0.4S0.8,16.2,0.8,35.6z"/>
<g>
	<path class="st1" d="M32.6,34.8v17.7c0,2.2,1.8,4,4,4c2.2,0,4-1.8,4-4c0,0,0,0,0,0V34.8c0-2.2-1.8-4-4-4
		C34.4,30.8,32.6,32.6,32.6,34.8C32.6,34.8,32.6,34.8,32.6,34.8z"/>
	<path class="st1" d="M36.6,17.9c-1.1,0-2,0.3-2.8,1.1c-0.8,0.7-1.2,1.7-1.2,2.9c0,1.1,0.4,2.1,1.2,2.9c0.8,0.8,1.7,1.2,2.8,1.2
		c1.1,0,2.1-0.4,2.9-1.1c0.8-0.8,1.2-1.8,1.2-2.9s-0.4-2.2-1.2-2.9C38.8,18.3,37.8,17.9,36.6,17.9L36.6,17.9z"/>
</g>
</svg>
