<?xml version="1.0" standalone="no"?><!DOCTYPE svg PUBLIC "-//W3C//DTD SVG 1.1//EN" "http://www.w3.org/Graphics/SVG/1.1/DTD/svg11.dtd">
<svg t="1669894288872" class="icon" viewBox="0 0 1024 1024" version="1.1"
  xmlns="http://www.w3.org/2000/svg" p-id="2690" width="48" height="48"
  xmlns:xlink="http://www.w3.org/1999/xlink">
  <path d="M504.746667 384 640 518.826667C640 516.693333 640 514.133333 640 512 640 441.173333 582.826667 384 512 384 509.44 384 507.306667 384 504.746667 384M321.28 418.133333 387.413333 484.266667C385.28 493.226667 384 502.186667 384 512 384 582.826667 441.173333 640 512 640 521.386667 640 530.773333 638.72 539.733333 636.586667L605.866667 702.72C577.28 716.8 545.706667 725.333333 512 725.333333 394.24 725.333333 298.666667 629.76 298.666667 512 298.666667 478.293333 307.2 446.72 321.28 418.133333M85.333333 182.186667 182.613333 279.466667 201.813333 298.666667C131.413333 354.133333 75.946667 426.666667 42.666667 512 116.48 699.306667 298.666667 832 512 832 578.133333 832 641.28 819.2 698.88 796.16L717.226667 814.08 841.813333 938.666667 896 884.48 139.52 128M512 298.666667C629.76 298.666667 725.333333 394.24 725.333333 512 725.333333 539.306667 719.786667 565.76 709.973333 589.653333L834.986667 714.666667C898.986667 661.333333 950.186667 591.36 981.333333 512 907.52 324.693333 725.333333 192 512 192 452.266667 192 395.093333 202.666667 341.333333 221.866667L433.92 313.6C458.24 304.213333 484.266667 298.666667 512 298.666667Z" fill="#2580fb" p-id="2691"></path>
</svg>
