<?xml version="1.0" standalone="no"?><!DOCTYPE svg PUBLIC "-//W3C//DTD SVG 1.1//EN" "http://www.w3.org/Graphics/SVG/1.1/DTD/svg11.dtd"><svg t="1679311267036" class="icon" viewBox="0 0 1024 1024" version="1.1" xmlns="http://www.w3.org/2000/svg" p-id="3645" xmlns:xlink="http://www.w3.org/1999/xlink" width="72" height="72"><path d="M512 506.72071111m-500.98631111 0a500.98631111 500.98631111 0 1 0 1001.97262222 0 500.98631111 500.98631111 0 1 0-1001.97262222 0Z" fill="#faad40" p-id="3646"></path><path d="M733.36604445 444.60942223H290.05141333c-19.22389333 0-34.95253333-15.72864-34.95253333-34.95253333s15.72864-34.95253333 34.95253333-34.95253333h357.68092445l-57.08913778-55.92405334c-13.98101333-13.39847111-13.98101333-35.53507555-0.58254222-49.51608889 13.39847111-13.98101333 35.53507555-13.98101333 49.51608889-0.58254222l118.25607111 115.92590222c9.90321778 9.90321778 13.39847111 25.04931555 8.15559111 38.44778666S747.34705778 444.60942223 733.36604445 444.60942223zM408.30748445 734.13290667c-8.73813333 0-17.47626667-3.49525333-24.46677334-9.90321777l-118.25607111-115.92590223c-9.90321778-9.90321778-13.39847111-25.04931555-8.15559111-38.44778667s18.05880889-21.55406222 32.62236444-21.55406222H733.36604445c19.22389333 0 34.95253333 15.72864 34.95253333 34.95253334s-15.72864 34.95253333-34.95253333 34.95253333H375.68512l57.08913778 55.92405333c13.98101333 13.39847111 13.98101333 35.53507555 0.58254222 49.51608889-6.99050667 6.40796445-16.31118222 10.48576-25.04931555 10.48576z" fill="#FFFFFF" p-id="3647"></path></svg>