<?xml version="1.0" encoding="utf-8"?>
<!-- Generator: Adobe Illustrator 25.4.1, SVG Export Plug-In . SVG Version: 6.00 Build 0)  -->
<svg version="1.1" id="图层_1" xmlns="http://www.w3.org/2000/svg" xmlns:xlink="http://www.w3.org/1999/xlink" x="0px" y="0px"
	 viewBox="0 0 72 72" style="enable-background:new 0 0 72 72;" xml:space="preserve">
<style type="text/css">
	.st0{fill:#21C0F7;}
	.st1{fill:#FFFFFF;}
</style>
<path class="st0" d="M0.8,35.6c0,19.5,15.8,35.2,35.2,35.2s35.2-15.8,35.2-35.2S55.5,0.4,36,0.4S0.8,16.2,0.8,35.6z"/>
<path class="st1" d="M49.7,51.3H46V38.9h3.6c3.8,0,6.3,1.8,6.3,6.1C55.8,49.3,53.3,51.3,49.7,51.3L49.7,51.3z M49.3,41.3h-0.4v7.6
	h0.4c2,0,3.4-0.9,3.4-3.9C52.7,42.1,51.3,41.3,49.3,41.3z M36.4,22c-4.6,0-8.9,1.8-12.1,5l-2.8-2.8c3.9-4,9.3-6.2,14.9-6.2
	c5.6,0,10.9,2.2,14.9,6.2L48.5,27C45.3,23.8,41,22,36.4,22z M27.7,42.8c0,1.8-0.8,3-2.1,3.6l2.8,4.9H25l-2.3-4.3h-1.4v4.3h-3V38.9
	h4.5C25.5,38.9,27.7,39.8,27.7,42.8L27.7,42.8z M21.3,41.3v3.3h1.3c1.4,0,2.2-0.6,2.2-1.8c0-1.2-0.7-1.5-2.2-1.5H21.3z M38,41.4
	h-4.9v2.7h4.2v2.5h-4.2v4.7h-3V38.9H38V41.4L38,41.4z M36.4,31c-2.2,0-4.2,0.8-5.7,2.4l-2.8-2.8c2.3-2.3,5.3-3.6,8.6-3.5
	c3.2,0,6.3,1.3,8.6,3.5l-2.8,2.8C40.7,31.8,38.6,31,36.4,31L36.4,31z M43.1,51.3h-3V38.9h3V51.3z"/>
</svg>
