<?xml version="1.0" standalone="no"?><!DOCTYPE svg PUBLIC "-//W3C//DTD SVG 1.1//EN" "http://www.w3.org/Graphics/SVG/1.1/DTD/svg11.dtd"><svg t="1716358341895" class="icon" viewBox="0 0 1024 1024" version="1.1" xmlns="http://www.w3.org/2000/svg" p-id="5305" xmlns:xlink="http://www.w3.org/1999/xlink" width="200" height="200"><path d="M51.2 51.2m38.4 0l588.8 0q38.4 0 38.4 38.4l0 0q0 38.4-38.4 38.4l-588.8 0q-38.4 0-38.4-38.4l0 0q0-38.4 38.4-38.4Z" fill="#262626" p-id="5306"></path><path d="M358.4 102.4m38.4 0l0 0q38.4 0 38.4 38.4l0 793.6q0 38.4-38.4 38.4l0 0q-38.4 0-38.4-38.4l0-793.6q0-38.4 38.4-38.4Z" fill="#262626" p-id="5307"></path><path d="M768 51.2m38.4 0l0 0q38.4 0 38.4 38.4l0 844.8q0 38.4-38.4 38.4l0 0q-38.4 0-38.4-38.4l0-844.8q0-38.4 38.4-38.4Z" fill="#262626" p-id="5308"></path><path d="M859.776 68.096l100.8384 131.072A51.2 51.2 0 0 1 920.0128 281.6H768V99.328a51.2 51.2 0 0 1 91.776-31.232z" fill="#262626" p-id="5309"></path></svg>